<?xml version="1.0" standalone="no"?>
<!DOCTYPE svg PUBLIC "-//W3C//DTD SVG 20010904//EN"
 "http://www.w3.org/TR/2001/REC-SVG-20010904/DTD/svg10.dtd">
<svg version="1.0" xmlns="http://www.w3.org/2000/svg"
 width="612.000000pt" height="408.000000pt" viewBox="0 0 612.000000 408.000000"
 preserveAspectRatio="xMidYMid meet">
<metadata>
Created by potrace 1.16, written by Peter Selinger 2001-2019
</metadata>
<g transform="translate(0.000000,408.000000) scale(0.100000,-0.100000)"
fill="#000000" stroke="none">
<path d="M2820 3041 c0 -6 5 -11 10 -11 6 0 10 -7 10 -15 0 -8 5 -15 10 -15 6
0 10 -5 10 -12 0 -6 -11 -1 -24 11 l-23 22 -5 -25 c-5 -27 6 -36 15 -13 3 7 6
5 6 -5 1 -10 -6 -18 -14 -18 -12 0 -15 -12 -14 -52 0 -29 3 -47 6 -39 5 11 7
11 14 0 8 -12 10 -12 18 0 7 11 11 6 16 -20 3 -19 5 -39 4 -44 -1 -6 1 -23 6
-40 7 -26 9 -27 16 -10 6 17 8 16 8 -7 1 -16 -4 -28 -9 -28 -16 0 -32 50 -32
95 l1 40 -13 -35 c-7 -19 -10 -36 -5 -38 4 -2 5 -10 2 -19 -5 -12 -3 -14 6 -8
10 5 11 2 6 -14 -4 -15 -3 -21 6 -19 7 2 13 -6 14 -17 0 -21 37 -45 72 -45 12
0 23 -6 26 -12 6 -20 202 -16 248 4 54 24 99 119 106 226 7 93 -3 172 -21 172
-6 0 -27 -16 -46 -35 -24 -24 -43 -35 -63 -35 -20 0 -43 12 -68 35 -22 19 -48
35 -59 35 -11 0 -40 -18 -64 -40 -24 -22 -48 -40 -54 -40 -5 0 -9 -8 -7 -17 1
-10 0 -12 -2 -5 -3 6 -9 12 -15 12 -9 0 -5 -127 8 -207 3 -20 1 -33 -6 -33
-10 0 -12 9 -15 85 -1 22 -6 64 -10 93 -7 45 -5 55 11 68 18 15 18 15 -8 9
-17 -3 -28 -1 -28 5 0 6 5 8 10 5 6 -3 10 -3 9 2 -1 13 -69 66 -69 54z"/>
<path d="M3220 2610 c-10 -6 -11 -10 -2 -10 20 0 14 -27 -8 -33 -29 -8 -66 3
-48 14 8 6 0 7 -22 5 -19 -3 -51 -6 -70 -7 -28 -2 -24 -4 20 -9 l55 -7 -45 -1
c-58 -2 -97 8 -78 19 7 5 -4 6 -26 2 -27 -4 -37 -3 -33 5 4 6 0 9 -10 7 -10
-1 -23 2 -30 7 -14 11 -34 -61 -40 -151 -4 -47 -2 -61 7 -56 9 5 10 1 5 -16
l-6 -24 21 25 c23 27 23 27 4 -40 -6 -24 14 -66 27 -53 5 5 4 24 -2 46 -7 26
-7 42 1 55 9 14 10 12 5 -11 -3 -17 -2 -26 3 -23 5 3 10 -13 10 -36 1 -24 -5
-46 -11 -50 -9 -6 -9 -8 1 -8 18 0 15 -40 -5 -47 -11 -4 -24 3 -41 22 -24 29
-25 29 -18 5 6 -22 5 -22 -4 -7 -7 10 -9 25 -6 32 3 8 1 17 -3 19 -5 3 -11 20
-15 37 -3 18 -9 30 -12 27 -3 -4 -1 -23 5 -44 7 -25 7 -42 0 -53 -8 -14 -9
-13 -8 4 1 11 -3 31 -8 45 -6 14 -8 29 -5 35 3 5 7 55 7 110 1 55 0 93 -3 85
-10 -31 -23 -40 -43 -29 -15 7 -18 16 -13 37 4 15 12 30 18 34 15 11 -6 10
-22 0 -7 -5 -10 -16 -6 -25 3 -9 1 -17 -4 -17 -6 0 -12 8 -14 17 -3 14 -5 15
-18 2 -8 -8 -33 -27 -54 -43 -59 -45 -97 -89 -83 -99 7 -5 3 -6 -9 -2 -24 6
-37 -14 -28 -42 4 -12 3 -14 -3 -6 -12 16 -75 -42 -77 -72 0 -13 -4 -21 -7
-19 -9 5 -82 -116 -75 -123 3 -3 -1 -11 -9 -17 -12 -9 -12 -20 -4 -55 11 -50
7 -71 -16 -71 -9 0 -15 9 -15 23 0 16 3 18 9 8 6 -9 11 -10 15 -2 4 6 0 21 -8
33 -11 15 -16 18 -16 8 0 -8 -7 -28 -16 -45 -8 -16 -16 -42 -17 -57 -1 -15 -8
-30 -14 -33 -18 -6 -16 -35 2 -35 8 0 15 -5 15 -11 0 -6 -8 -8 -18 -5 -21 7
-26 -22 -10 -62 6 -15 12 -45 13 -67 3 -36 3 -37 -5 -10 -4 17 -11 44 -15 60
-7 27 -9 25 -21 -33 -7 -35 -10 -70 -7 -78 3 -7 0 -14 -6 -14 -6 0 -11 -17
-11 -39 0 -41 13 -54 48 -44 12 3 30 -2 42 -10 21 -14 21 -14 0 -20 -21 -5
-29 -29 -7 -24 8 1 12 -10 12 -33 l0 -34 -47 3 c-30 1 -48 -2 -48 -8 0 -6 19
-12 43 -13 l42 -1 -45 -6 c-57 -8 -38 -22 25 -19 31 1 50 -4 56 -13 8 -12 12
-11 26 6 14 18 15 18 9 2 -3 -10 -6 -23 -6 -28 0 -5 -7 -9 -16 -9 -10 0 -14
-5 -10 -15 3 -9 1 -15 -7 -14 -6 1 -30 1 -52 0 -30 -1 -36 -4 -25 -11 11 -7
11 -10 2 -10 -7 0 -10 -5 -7 -10 9 -15 25 -12 25 5 0 8 4 15 9 15 6 0 8 -29 6
-65 l-3 -65 51 -53 c63 -66 99 -89 121 -81 9 3 16 1 16 -6 0 -6 -4 -8 -10 -5
-5 3 -10 1 -10 -4 0 -6 6 -11 14 -11 8 0 16 -6 19 -12 3 -10 57 -13 223 -14
271 -1 252 1 256 -29 2 -14 6 -25 11 -25 4 0 50 0 102 0 l95 0 0 39 c0 36 -3
40 -27 44 l-28 4 27 2 27 1 3 142 3 142 160 -2 c88 -1 232 -4 320 -7 88 -3
187 -2 220 2 l60 8 13 95 c16 113 3 264 -31 372 -20 63 -23 66 -50 63 -41 -5
-55 3 -62 34 -3 15 -19 61 -36 102 -20 49 -30 89 -29 119 3 80 1 88 -38 129
-29 31 -46 41 -69 41 -21 0 -35 7 -46 24 -54 82 -208 216 -304 265 -46 23 -70
26 -93 11z"/>
<path d="M3760 1239 c-64 -26 -100 -85 -100 -165 0 -91 40 -147 120 -165 99
-23 190 55 190 164 0 124 -106 207 -210 166z m95 -85 c35 -20 24 -39 -20 -37
l-40 1 43 -15 c29 -10 44 -22 48 -38 7 -29 -10 -62 -36 -70 -11 -3 -20 -11
-20 -16 0 -5 -7 -9 -15 -9 -8 0 -15 3 -15 8 0 4 -14 15 -30 24 -39 22 -40 48
-1 48 17 0 33 -4 36 -10 8 -13 25 -13 25 -1 0 5 -13 12 -29 16 -16 3 -35 12
-41 20 -17 20 -8 66 15 79 11 6 24 17 29 25 8 12 10 12 20 0 6 -8 20 -19 31
-25z"/>
<path d="M4130 1153 c-35 -24 -40 -33 -40 -76 0 -30 7 -45 30 -67 26 -24 34
-27 70 -20 51 9 80 42 80 90 0 66 -86 111 -140 73z"/>
</g>
</svg>
